<?xml version="1.0" encoding="UTF-8"?><svg xmlns="http://www.w3.org/2000/svg" xmlns:xlink="http://www.w3.org/1999/xlink" viewBox="0 0 1040 500"><defs><style>.f{fill:#b2cebf;}.g{fill:#fff;}.h{fill:#ff9b0b;}.i{fill:#ffc022;}.j{fill:#49bcdb;}.k{fill:#edeae6;}.l{fill:#f5fff9;}.m{fill:#ef7700;}.n{fill:#86b79c;}.o{fill:#dddad7;}.p{fill:#ffbd29;}.q{fill:#abb2ae;}.r{opacity:.72;}.r,.s{fill:#41aace;}.t{fill:#dee2de;}.u,.v{fill:#3e9ace;}.w{fill:#fbaf7b;}.x{fill:#f29611;}.y{fill:#4ebad8;}.a`{fill:#d0efdc;}.aa{fill:#f4a56e;}.ab{fill:#ed9a62;}.ac{clip-path:url(#c);}.ad{fill:#84918a;}.v{opacity:.67;}.ae{clip-path:url(#d);}.af{fill:#ce814d;}.ag{fill:#c3e2ce;}.ah{fill:none;}.ai{fill:#faa71b;}.aj{fill:#f7a269;}.ak{fill:#e2f7eb;}.al{fill:#ea9357;}.am{fill:#86a592;}.an{fill:#5b3318;}.ao{fill:#1e0e02;}</style><clipPath id="c"><rect class="ah" x="0" y="0" width="1040" height="500"/></clipPath><clipPath id="d"><rect class="ah" x="650.3" y="23.84" width="354.15" height="476.16" transform="translate(1654.75 523.84) rotate(-180)"/></clipPath></defs><g id="a"/><g id="b"><g><g class="ac"><path class="l" d="M1230.95,210.02c-11.52,.65-21.81-7.29-23.95-18.63-4.17-22.13-10.66-43.44-19.22-63.66h0l28.49-14.37c11.84-5.97,16.22-20.67,9.59-32.15l-1.78-3.08-13.99-24.23-1.78-3.08c-6.63-11.48-21.55-15.03-32.64-7.77l-26.77,17.53h0c-13.42-17.72-28.68-33.97-45.49-48.47-8.73-7.53-10.46-20.4-4.15-30.05l6.1-9.32c7.26-11.09,3.71-26.01-7.77-32.64l-3.08-1.78-24.23-13.99-3.08-1.78c-11.48-6.63-26.18-2.25-32.15,9.59l-4.98,9.86c-5.2,10.3-17.22,15.22-28.12,11.42-14.52-5.07-29.53-9.1-44.94-12-11.34-2.14-19.28-12.43-18.63-23.95l.62-11.06c.74-13.24-9.79-24.38-23.05-24.38h-35.1c-13.26,0-23.79,11.14-23.05,24.38l.62,11.06c.65,11.52-7.29,21.81-18.63,23.95-22.13,4.17-43.44,10.66-63.66,19.22h.01l-14.38-28.5c-5.97-11.84-20.67-16.22-32.15-9.59l-3.08,1.78-24.23,13.99-3.08,1.78c-11.48,6.63-15.03,21.55-7.77,32.64l6.1,9.32c6.32,9.65,4.58,22.51-4.15,30.05-16.81,14.5-32.07,30.75-45.49,48.47h0l-26.77-17.53c-11.09-7.26-26.01-3.71-32.64,7.77l-1.78,3.08-13.99,24.23-1.78,3.08c-6.63,11.48-2.25,26.18,9.59,32.15l28.49,14.38h0c-8.56,20.21-15.05,41.52-19.22,63.65-2.14,11.34-12.43,19.28-23.95,18.63l-11.06-.62c-13.24-.74-24.38,9.79-24.38,23.05v35.1c0,13.26,11.14,23.79,24.38,23.05l11.06-.62c11.52-.65,21.81,7.3,23.95,18.63,2.91,15.41,6.93,30.41,12,44.94,3.8,10.9-1.12,22.92-11.42,28.12l-9.86,4.98c-11.84,5.97-16.22,20.67-9.59,32.15l1.78,3.08,13.99,24.23,1.78,3.08c6.63,11.48,21.55,15.03,32.64,7.77l9.32-6.1c9.65-6.32,22.51-4.58,30.04,4.15,14.5,16.81,30.75,32.07,48.47,45.49h0l-17.53,26.77c-7.26,11.09-3.71,26.01,7.77,32.64l3.08,1.78,24.23,13.99,3.08,1.78c11.48,6.63,26.18,2.25,32.15-9.59l14.38-28.49h-.01c20.22,8.55,41.53,15.04,63.66,19.21,11.34,2.14,19.28,12.43,18.63,23.95l-.62,11.06c-.74,13.24,9.79,24.38,23.05,24.38h35.1c13.26,0,23.79-11.14,23.05-24.38l-.62-11.06c-.65-11.52,7.3-21.81,18.63-23.95,15.41-2.91,30.41-6.93,44.94-12,10.9-3.8,22.92,1.12,28.12,11.42l4.97,9.86c5.97,11.84,20.67,16.22,32.15,9.59l3.08-1.78,24.23-13.99,3.08-1.78c11.48-6.63,15.03-21.55,7.77-32.64l-6.1-9.32c-6.32-9.65-4.58-22.51,4.15-30.05,11.76-10.14,22.75-21.14,32.9-32.9,7.53-8.73,20.4-10.46,30.05-4.15l9.32,6.1c11.09,7.26,26.01,3.71,32.64-7.77l1.78-3.08,13.99-24.23,1.78-3.08c6.63-11.48,2.25-26.18-9.59-32.15l-9.86-4.98c-10.3-5.2-15.22-17.22-11.42-28.12,5.07-14.52,9.1-29.53,12-44.94,2.14-11.34,12.43-19.28,23.95-18.63l11.06,.62c13.24,.74,24.38-9.79,24.38-23.05v-35.1c0-13.26-11.14-23.79-24.38-23.05l-11.06,.62Z"/></g><g><g><g><rect class="ak" x="732.27" y="274.78" width="116.45" height="225.22" transform="translate(1580.98 774.78) rotate(-180)"/><rect class="ak" x="759.3" y="239.21" width="62" height="54.51" transform="translate(1580.59 532.93) rotate(-180)"/><rect class="ak" x="776.5" y="212.72" width="27.59" height="40.64" transform="translate(1580.59 466.08) rotate(-180)"/></g><rect class="ak" x="759.3" y="239.21" width="62" height="54.51" transform="translate(1580.59 532.93) rotate(-180)"/><rect class="ak" x="776.5" y="212.72" width="27.59" height="40.64" transform="translate(1580.59 466.08) rotate(-180)"/></g><g><rect class="a`" x="763.24" y="245.06" width="54.5" height="12.9" transform="translate(1580.98 503.01) rotate(-180)"/><rect class="a`" x="763.24" y="264.79" width="54.5" height="12.9" transform="translate(1580.98 542.48) rotate(-180)"/><rect class="a`" x="763.24" y="284.53" width="54.5" height="12.9" transform="translate(1580.98 581.96) rotate(-180)"/><rect class="a`" x="763.24" y="304.27" width="54.5" height="12.9" transform="translate(1580.98 621.44) rotate(-180)"/><rect class="a`" x="763.24" y="324.01" width="54.5" height="12.9" transform="translate(1580.98 660.91) rotate(-180)"/><rect class="a`" x="763.24" y="343.75" width="54.5" height="12.9" transform="translate(1580.98 700.39) rotate(-180)"/><rect class="a`" x="763.24" y="363.48" width="54.5" height="12.9" transform="translate(1580.98 739.87) rotate(-180)"/><rect class="a`" x="763.24" y="383.22" width="54.5" height="12.9" transform="translate(1580.98 779.34) rotate(-180)"/><rect class="a`" x="763.24" y="402.96" width="54.5" height="12.9" transform="translate(1580.98 818.82) rotate(-180)"/><rect class="a`" x="763.24" y="422.7" width="54.5" height="12.9" transform="translate(1580.98 858.29) rotate(-180)"/><rect class="a`" x="763.24" y="442.44" width="54.5" height="12.9" transform="translate(1580.98 897.77) rotate(-180)"/><rect class="a`" x="763.24" y="462.18" width="54.5" height="12.9" transform="translate(1580.98 937.25) rotate(-180)"/><rect class="a`" x="763.24" y="481.91" width="54.5" height="12.9" transform="translate(1580.98 976.72) rotate(-180)"/></g></g><g><g><g><rect class="ak" x="938.77" y="359.67" width="72.56" height="140.33" transform="translate(1950.09 859.67) rotate(-180)"/><rect class="ak" x="955.61" y="337.5" width="38.63" height="33.97" transform="translate(1949.85 708.97) rotate(-180)"/><rect class="ak" x="966.33" y="321" width="17.19" height="25.32" transform="translate(1949.85 667.32) rotate(-180)"/></g><rect class="ak" x="955.61" y="337.5" width="38.63" height="33.97" transform="translate(1949.85 708.97) rotate(-180)"/><rect class="ak" x="966.33" y="321" width="17.19" height="25.32" transform="translate(1949.85 667.32) rotate(-180)"/></g><g><rect class="a`" x="958.07" y="341.15" width="33.96" height="8.04" transform="translate(1950.09 690.33) rotate(-180)"/><rect class="a`" x="958.07" y="353.45" width="33.96" height="8.04" transform="translate(1950.09 714.93) rotate(-180)"/><rect class="a`" x="958.07" y="365.74" width="33.96" height="8.04" transform="translate(1950.09 739.52) rotate(-180)"/><rect class="a`" x="958.07" y="378.04" width="33.96" height="8.04" transform="translate(1950.09 764.12) rotate(-180)"/><rect class="a`" x="958.07" y="390.34" width="33.96" height="8.04" transform="translate(1950.09 788.72) rotate(-180)"/><rect class="a`" x="958.07" y="402.64" width="33.96" height="8.04" transform="translate(1950.09 813.32) rotate(-180)"/><rect class="a`" x="958.07" y="414.94" width="33.96" height="8.04" transform="translate(1950.09 837.91) rotate(-180)"/><rect class="a`" x="958.07" y="427.24" width="33.96" height="8.04" transform="translate(1950.09 862.51) rotate(-180)"/><rect class="a`" x="958.07" y="439.54" width="33.96" height="8.04" transform="translate(1950.09 887.11) rotate(-180)"/><rect class="a`" x="958.07" y="451.83" width="33.96" height="8.04" transform="translate(1950.09 911.7) rotate(-180)"/><rect class="a`" x="958.07" y="464.13" width="33.96" height="8.04" transform="translate(1950.09 936.3) rotate(-180)"/><rect class="a`" x="958.07" y="476.43" width="33.96" height="8.04" transform="translate(1950.09 960.9) rotate(-180)"/><rect class="a`" x="958.07" y="488.73" width="33.96" height="8.04" transform="translate(1950.09 985.5) rotate(-180)"/></g></g><path class="ak" d="M508.64,116.39h-239.92l45.23-20.72s-3.59-41.25,20.33-50.81c23.91-9.56,29.89,14.95,29.89,14.95,0,0,3.59-16.98,24.51-17.16,20.92-.18,26.3,29.12,27.5,41.67,10.16-22.72,41.44-17.93,39.85,8.37,14.21-16.74,44.04-17.74,52.61,23.71Z"/><path class="ak" d="M373.68,420.74H222.64l28.48-13.05s-2.26-25.97,12.8-31.99c15.05-6.02,18.82,9.41,18.82,9.41,0,0,2.26-10.69,15.43-10.8,13.17-.11,16.56,18.33,17.31,26.23,6.4-14.3,26.09-11.29,25.09,5.27,8.95-10.54,27.73-11.16,33.12,14.93Z"/><path class="ak" d="M1027.3,77.04h-145.33l27.4-12.55s-2.17-24.99,12.31-30.78c14.49-5.79,18.11,9.05,18.11,9.05,0,0,2.17-10.29,14.85-10.39,12.67-.11,15.93,17.64,16.66,25.24,6.16-13.76,25.11-10.86,24.14,5.07,8.61-10.14,26.68-10.74,31.87,14.36Z"/><path class="ak" d="M864.58,166.68h-145.33l27.4-12.55s-2.17-24.99,12.31-30.78c14.49-5.79,18.11,9.05,18.11,9.05,0,0,2.17-10.29,14.85-10.39,12.67-.11,15.93,17.64,16.66,25.24,6.16-13.76,25.11-10.86,24.14,5.07,8.61-10.14,26.68-10.74,31.87,14.36Z"/><path class="ak" d="M520,271.96h-121l22.81-10.45s-1.81-20.8,10.25-25.63c12.06-4.82,15.07,7.54,15.07,7.54,0,0,1.81-8.57,12.36-8.65,10.55-.09,13.27,14.68,13.87,21.02,5.13-11.46,20.9-9.04,20.1,4.22,7.17-8.44,22.21-8.94,26.53,11.96Z"/><path class="ak" d="M166,122.74H45l22.81-10.45s-1.81-20.8,10.25-25.63c12.06-4.82,15.07,7.54,15.07,7.54,0,0,1.81-8.57,12.36-8.65s13.27,14.68,13.87,21.02c5.13-11.46,20.9-9.04,20.1,4.22,7.17-8.44,22.21-8.94,26.53,11.96Z"/><polygon class="ag" points="429.64 500 429.64 417.53 474.9 417.53 474.9 447.36 490.19 447.36 490.19 369.5 557.82 369.5 557.82 438.8 572.69 438.8 572.69 415.43 614.24 415.43 614.24 441.61 624.86 441.61 624.86 303.44 665.3 303.44 665.3 500 429.64 500"/><polygon class="ag" points="901.55 434.37 901.55 458.11 912.67 458.11 912.67 396.15 961.84 396.15 961.84 451.3 972.66 451.3 972.66 432.7 1002.87 432.7 1002.87 453.53 1010.6 453.53 1010.6 392.56 1040 392.56 1040 500 868.64 500 868.64 434.37 901.55 434.37"/><g><rect class="ak" x="659.52" y="365.71" width="80.09" height="134.29" transform="translate(1399.13 865.71) rotate(-180)"/><g><rect class="a`" x="674.72" y="372.1" width="54.5" height="8.31" transform="translate(1403.94 752.51) rotate(-180)"/><rect class="a`" x="674.72" y="384.81" width="54.5" height="8.31" transform="translate(1403.94 777.93) rotate(-180)"/><rect class="a`" x="674.72" y="397.52" width="54.5" height="8.31" transform="translate(1403.94 803.35) rotate(-180)"/><rect class="a`" x="674.72" y="410.24" width="54.5" height="8.31" transform="translate(1403.94 828.78) rotate(-180)"/><rect class="a`" x="674.72" y="422.95" width="54.5" height="8.31" transform="translate(1403.94 854.2) rotate(-180)"/><rect class="a`" x="674.72" y="435.66" width="54.5" height="8.31" transform="translate(1403.94 879.62) rotate(-180)"/><rect class="a`" x="674.72" y="448.37" width="54.5" height="8.31" transform="translate(1403.94 905.05) rotate(-180)"/><rect class="a`" x="674.72" y="461.08" width="54.5" height="8.31" transform="translate(1403.94 930.47) rotate(-180)"/><rect class="a`" x="674.72" y="473.79" width="54.5" height="8.31" transform="translate(1403.94 955.89) rotate(-180)"/><rect class="a`" x="674.72" y="486.5" width="54.5" height="8.31" transform="translate(1403.94 981.31) rotate(-180)"/></g></g><g><g><g><g><g><g><path class="n" d="M723.42,232.03h-178.85v-21.74h178.85v21.74Zm-175.89-2.96h172.92v-15.81h-172.92v15.81Z"/><rect class="n" x="584.71" y="212.72" width="2.96" height="16.67"/><rect class="n" x="604.35" y="212.72" width="2.96" height="16.67"/><rect class="n" x="623.99" y="212.72" width="2.96" height="16.67"/><rect class="n" x="643.63" y="212.72" width="2.96" height="16.67"/><rect class="n" x="663.27" y="212.72" width="2.96" height="16.67"/><rect class="n" x="682.91" y="212.72" width="2.96" height="16.67"/><rect class="n" x="702.55" y="212.72" width="2.96" height="16.67"/></g><polygon class="n" points="646.11 231.34 626.02 214.66 606.59 231.33 587.15 215.59 568.2 231.32 545.61 212.92 547.48 210.63 568.19 227.48 587.12 211.75 606.54 227.47 625.98 210.78 646.07 227.45 665.37 210.75 684.2 227.47 703.97 211.89 722.33 228.8 720.32 230.98 703.82 215.78 684.09 231.33 665.35 214.69 646.11 231.34"/><polygon class="n" points="665.37 231.86 646.07 215.16 625.98 231.83 606.54 215.15 587.12 230.86 568.17 215.12 547.79 231.06 545.96 228.72 568.22 211.31 587.15 227.03 606.59 211.29 626.02 227.95 646.11 211.27 665.35 227.92 684.09 211.29 703.83 226.84 720.94 211.2 722.94 213.38 703.97 230.72 684.2 215.15 665.37 231.86"/></g><g><g><polygon class="n" points="641.94 500 650.64 237.06 679 237.06 687.68 500 690.64 500 681.87 234.09 647.77 234.09 638.97 500 641.94 500"/><polygon class="n" points="655.65 500 659.45 500 644.42 481.28 688.08 441.24 646.51 391.29 683.82 348.8 651.06 304.27 680.92 265.59 650.26 234.53 648.15 236.61 676.99 265.83 647.35 304.23 680.02 348.64 642.61 391.24 683.99 440.97 640.37 480.97 655.65 500"/><polygon class="n" points="684.83 480.93 669.28 500 673.11 500 688.9 480.62 645.09 440.95 685.68 391.23 648.28 348.64 680.95 304.23 651.31 265.83 680.15 236.61 678.04 234.53 647.38 265.59 677.24 304.27 644.48 348.8 681.79 391.3 641.02 441.26 684.83 480.93"/><rect class="n" x="648.19" y="264.31" width="33.24" height="2.96"/><rect class="n" x="663.53" y="286.02" width="2.96" height="36.13" transform="translate(352.03 964.96) rotate(-89.23)"/><rect class="n" x="663.62" y="330.08" width="2.96" height="36.94" transform="translate(310.35 1010.36) rotate(-89.46)"/><rect class="n" x="644.05" y="390.06" width="41.54" height="2.96"/><rect class="n" x="663.16" y="418.4" width="2.96" height="45.15" transform="translate(220.03 1103.2) rotate(-89.69)"/><rect class="n" x="642.77" y="480.11" width="44.45" height="2.96"/></g><rect class="n" x="645.85" y="207.66" width="37.71" height="27.01"/></g></g><g><rect class="n" x="560.26" y="302.36" width="12.6" height="19.02"/><path class="n" d="M555.76,310.28h21.83v6.38c0,2.61-2.12,4.73-4.73,4.73h-12.38c-2.61,0-4.73-2.12-4.73-4.73v-6.38h0Z" transform="translate(1133.35 631.66) rotate(-180)"/><path class="n" d="M567.28,334.27c-.3,0-.61-.03-.91-.11-1.58-.37-2.76-1.7-3.24-3.63-.87-3.53,1.68-5.94,2.62-6.69v-2.95h1.47v3.71l-.33,.22c-.13,.09-3.12,2.17-2.34,5.36,.34,1.39,1.1,2.3,2.14,2.54,.97,.23,2.02-.14,2.7-.93,.43-.5,1.04-1.6,.34-3.31l1.36-.56c.73,1.78,.52,3.53-.58,4.83-.82,.97-2.03,1.51-3.25,1.51Z"/></g></g><rect class="n" x="658.99" y="140.94" width="11.07" height="75.64" transform="translate(1329.05 357.51) rotate(-180)"/><polygon class="n" points="720.59 211.5 721.29 210.9 664.33 144.35 664 144.53 547.26 210.22 547.71 211.03 664.12 145.52 720.59 211.5"/><path class="n" d="M522.63,347.37l40.65-13.62c2.56-.86,5.38-.85,7.93,.02l39.77,13.59,.32-.95-39.77-13.59c-2.76-.94-5.8-.96-8.57-.03l-40.65,13.62,.32,.95Z"/><rect class="n" x="516.48" y="345.98" width="100.54" height="47.04" transform="translate(1133.5 739) rotate(-180)"/><polygon class="n" points="564.68 312.34 568.02 312.34 568.02 256.46 594.89 235.13 648.15 235.13 648.15 234.21 594.57 234.21 567.1 256.02 567.1 311.41 565.6 311.41 565.6 256.33 547.18 229.53 546.42 230.06 564.68 256.61 564.68 312.34"/><path class="n" d="M591.63,234.67c0,1.71,1.39,3.1,3.1,3.1s3.1-1.39,3.1-3.1-1.39-3.1-3.1-3.1-3.1,1.39-3.1,3.1Z"/><path class="n" d="M563.15,256.46c0,1.71,1.39,3.1,3.1,3.1s3.1-1.39,3.1-3.1-1.39-3.1-3.1-3.1-3.1,1.39-3.1,3.1Z"/><circle class="n" cx="547.67" cy="234.44" r="3.1"/><circle class="n" cx="720.94" cy="221.53" r="17.68" transform="translate(54.51 574.67) rotate(-45)"/><circle class="a`" cx="721.29" cy="221.06" r="7.87" transform="translate(59.66 583.51) rotate(-45.75)"/></g><g><g><polygon class="n" points="504.14 500 507.14 500 507.14 424.2 642.77 424.2 642.77 421.2 504.14 421.2 504.14 500"/><rect class="n" x="534.89" y="422.7" width="3" height="77.3"/><rect class="n" x="566.64" y="422.7" width="3" height="77.3"/><rect class="n" x="598.39" y="422.7" width="3" height="77.3"/><rect class="n" x="630.14" y="422.7" width="3" height="77.3"/><rect class="n" x="505.64" y="459.85" width="136.42" height="3"/></g><polygon class="n" points="536.37 463.64 568.14 427.49 599.91 463.37 631.53 426.16 642.67 441.85 645.12 440.11 631.74 421.28 599.86 458.79 568.13 422.95 536.4 459.06 506.77 424.58 504.5 426.53 536.37 463.64"/><polygon class="n" points="536.37 499.22 568.14 464.87 599.91 498.97 631.53 463.6 642.72 478.57 645.06 476.82 631.74 458.99 599.86 494.63 568.13 460.57 536.4 494.89 506.72 462.06 504.55 464.02 536.37 499.22"/><polygon class="n" points="631.74 499.5 645.12 480.66 642.67 478.93 631.53 494.61 599.91 457.41 568.14 493.29 536.37 457.14 504.5 494.24 506.77 496.2 536.4 461.71 568.13 497.82 599.86 461.98 631.74 499.5"/><polygon class="n" points="631.74 461.79 645.06 443.96 642.72 442.21 631.53 457.18 599.91 421.81 568.14 455.91 536.37 421.56 504.55 456.76 506.72 458.72 536.4 425.89 568.13 460.21 599.86 426.14 631.74 461.79"/></g><g><g><polygon class="n" points="826.46 500 823.46 500 823.46 424.2 687.82 424.2 687.82 421.2 826.46 421.2 826.46 500"/><rect class="n" x="792.71" y="422.7" width="3" height="77.3"/><rect class="n" x="760.96" y="422.7" width="3" height="77.3"/><rect class="n" x="729.21" y="422.7" width="3" height="77.3"/><rect class="n" x="697.46" y="422.7" width="3" height="77.3"/><rect class="n" x="688.53" y="459.85" width="136.42" height="3"/></g><polygon class="n" points="686.76 438.3 698.85 421.28 730.73 458.79 762.46 422.95 794.19 459.06 823.82 424.58 826.09 426.53 794.22 463.64 762.45 427.49 730.68 463.37 699.06 426.16 687.92 441.85 686.76 441.02 686.76 438.3"/><polygon class="n" points="688.39 473 698.86 458.99 730.73 494.63 762.46 460.57 794.19 494.89 823.87 462.06 826.04 464.02 794.22 499.22 762.45 464.87 730.68 498.97 699.06 463.6 688.39 477.88 688.39 473"/><polygon class="n" points="688.39 479.58 699.06 494.61 730.68 457.41 762.45 493.29 794.22 457.14 826.09 494.24 823.82 496.2 794.19 461.71 762.46 497.82 730.73 461.98 698.85 499.5 688.39 484.76 688.39 479.58"/><polygon class="n" points="686.76 443.04 687.87 442.21 699.06 457.18 730.68 421.81 762.45 455.91 794.22 421.56 826.04 456.76 823.87 458.72 794.19 425.89 762.46 460.21 730.73 426.14 698.86 461.79 686.76 445.6 686.76 443.04"/></g></g><g class="ae"><g><g><path class="u" d="M923.04,235.29s16.68,14.18,25.26,43.96c8.58,29.78-22.36,181.17-18.73,207.51,3.63,26.34,3.5,38.83,3.5,38.83h-154.3s16.04-175.43,23.44-203.7c11.55-44.12,38.47-80.59,38.47-80.59l54.12-12.74,28.24,6.73Z"/><path class="ai" d="M779.04,505.06c48.18,15,158.68,3,158.68,3,0,0-3.5-43.12,1-72.81,4.5-29.69,11.09-97.86,11.09-97.86,0,0,4.07-30.16,2.41-53.25-1.67-23.09-20.82-53.82-56.17-49.59-52.83,6.33-93.84,78.26-93.84,78.26,0,0-13.85,72.24-23.17,192.24Zm80.9-215.33c3.08-22,17.26-40.07,49.64-34.41,32.38,5.67,33.02,69.46,33.02,69.46-2.62,24.72-8.71,38.95-17.71,52.3-9,13.36-39.07,22-54,0s-14.02-65.36-10.94-87.36Z"/><path class="m" d="M936.76,490.49c.38,10.45,.96,17.57,.96,17.57,0,0-110.5,12-158.68-3,.46-5.87,.92-11.62,1.4-17.25,46.21,13.57,145.59,3.8,156.32,2.69Z"/><path class="x" d="M823.22,444.06c38.42,5.49,77.68,7.62,114.71-2.77-1.38,12.35-1.63,26.21-1.46,38.09-51.17,7.4-106.64,3.04-153.4-20.77,.76-7.92,1.53-15.55,2.31-22.9,12.05,4.54,25.11,6.62,37.85,8.35Z"/><path class="m" d="M901.8,240.46c-52.83,6.33-93.84,78.26-93.84,78.26,0,0-13.52,70.54-22.84,188-2.12-.52-4.16-1.07-6.08-1.67,9.32-120,23.17-192.24,23.17-192.24,0,0,41.01-71.93,93.84-78.26,19.02-2.28,33.34,5.57,42.79,16.91-9.16-7.99-21.54-12.86-37.04-11Z"/><path class="m" d="M864.29,388.72c15.59,16,39.09,16.83,50.34,9.25,11.25-7.58,25.8-48.99,28.92-66.08,0,0,7-22.17,1.67-49.17-5.33-27-24.4-40.66-52.67-37.33-28.26,3.33-40.33,23.33-44.67,56.33-4.33,33,.82,71,16.41,87Zm-4.35-99c3.08-22,17.26-40.07,49.64-34.41,32.38,5.67,33.02,69.46,33.02,69.46-2.62,24.72-8.71,38.95-17.71,52.3-9,13.36-39.07,22-54,0-14.93-22-14.02-65.36-10.94-87.36Z"/><path class="t" d="M794.4,361.95l72.42,7.79c1.2,2.63,2.55,5.1,4.07,7.33,7.17,10.57,17.85,14.06,28,13.35,.77,1.77,.83,3.46-.18,4.93-34.41-.17-91.71-10.08-107.09-12.86,.96-7.4,1.9-14.26,2.78-20.55Z"/><g><path class="y" d="M825.62,255.31s9.08-18.04,14.89-25.76c5.82-7.72,5.68-7.95,21.39-12.11,15.71-4.16,25.39-6.72,32.17-8.14,6.79-1.42,14.32-1.88,15.3,0,.99,1.88-1.87,13.63-1.87,13.63l-33.69,14.01-30.47,8.52-17.73,9.87Z"/><g><g><path class="w" d="M816.97,182.47s12.23,.1,16.56,5.37c4.33,5.27,6.21,12.24,10.36,17.7,4.14,5.46,2.67,21.5,0,31.1s70.75-3.95,70.75-3.95c0,0-20.54-29.34-18.03-45.41,2.51-16.07,12.77-33.64,12.77-33.64l-32.1-8.39-60.31,37.23Z"/><path class="aj" d="M881.48,166.6c-7.72,17.65-24.34,26.65-42.39,30.66-1.64-3.3-3.25-6.6-5.57-9.42-4.33-5.27-16.56-5.37-16.56-5.37l60.31-37.23,32.1,8.39s-7.93,13.59-11.56,27.79c-6.87-2.96-11.6-9.23-16.34-14.82Z"/><path class="w" d="M838.05,82.96s-6.78,4.52-11.86,13.37c-5.08,8.85-7.53,10.98-8.79,13.37-1.26,2.38,1.26,6.02,.63,8.28-.63,2.26-14.94,11.17-15.69,14.43s2.01,5.9,5.4,8.41c3.39,2.51,1.51,5.9-.5,7.28-2.01,1.38-.31,6.65,.5,7.03-1.44,2.13-2.7,4.14-1.38,5.9,1.32,1.76,4.02,5.27,1.13,7.66-2.89,2.38-3.26,8.91,.13,11.55s8.16,3.14,17.82,.75,17.2-1.76,24.35-2.13c7.15-.38,15.44-8.41,22.22-19.71,6.78-11.3,18.07-.5,29.12,.25s24.6-11.8,27.87-28.37c3.26-16.57-7.03-44.18-30.88-52.97-23.85-8.79-51.66-3.32-60.06,4.9Z"/><path class="aj" d="M827.57,94.08c4.85-7.36,10.48-11.12,10.48-11.12,8.4-8.22,36.21-13.68,60.06-4.9,23.85,8.79,34.14,36.4,30.88,52.97-3.26,16.57-16.82,29.12-27.87,28.37-.93-.06-1.86-.2-2.79-.39-5.59-7.96-12.75-10.01-17.98-18.86-11.71-20.63-31.08-37.42-52.77-46.07Z"/><path class="aj" d="M828.11,122.65s-4.86-7.99-2.46-11.28c2.4-3.28,7.81-3.64,12.8-1.51,4.99,2.14,6.45,3.59,6.45,3.59,0,0,6.65,12.43,1.49,10.44-11.91-4.62-18.27-1.25-18.27-1.25Z"/><path class="ao" d="M844.89,113.46s-7.15-7.53-11.17-8.03c-4.02-.5-10.54,.63-11.67,2.38s1.69,5.37,3.95,4.05c2.26-1.32,6.31-3.45,9.32-2.48,3.01,.97,9.57,4.08,9.57,4.08Z"/><path class="al" d="M815.74,133.8s5.84,1.88,4.42,6.31c-1.41,4.42-4.52,1.32-6.87,0-2.35-1.32-5.3-.97-5.99-2.01-.69-1.04,1.51-2.42,3.45-1.41,1.95,1,2.79,1.99,4.52,3.77,1.73,1.78,4.19,.3,4.58-1.19s-1.13-4.2-4.11-5.46Z"/><path class="af" d="M806.5,149.15c.35,.08,.93,.12,1.71-.15,1.37-.47,2.07,1.31,4.63,2.63,2.4,1.24,9,1.82,9.71,1.82-4.61,.99-14.81,1.68-14.81,1.68-.67-.31-1.94-3.95-1.24-5.99Z"/><path class="al" d="M805.85,158.85c.21-1.17,1.01-2.42,1.88-3.71l13.94-1.51s-6.43,4.57-12.15,5.11c-2.01,.19-3.1,.16-3.67,.11Z"/><path class="o" d="M925.78,144.8s.49,9.15-2.73,12.11c-3.22,2.97-8.64-.26-8.41-.48,.23-.23,9.83-13.26,9.83-13.26l1.31,1.63Z"/><path class="ao" d="M836.38,83.34s11.46-3.58,20.12,0c8.66,3.58,15.21,8.28,9.3,15.06-5.91,6.78-.64,11.86,3.12,17.89,3.77,6.02-5.65,19.58-5.65,19.58l6.54,3.95s11.73-9.41,18.5-6.02,0,20.97,0,20.97c0,0-.46,16.67,9.75,25.71,7.2-9.59,16.99-19.81,25.65-31.55,8.66-11.74,15.77-35.28,2.43-52.79-13.35-17.51-34.62-24.1-47.8-25.98-13.18-1.88-29.94-3.2-36.34,1.32-6.4,4.52-10.11,7.15-5.62,11.86Z"/><path class="w" d="M881.73,133.8s6.78-6.59,13.18-3.39c6.4,3.2,4.33,15.63-3.39,22.59-7.72,6.97-20.43,12.05-20.43,3.29s10.64-22.5,10.64-22.5Z"/><path class="al" d="M879.57,154.37s9.85-2.74,13.14-8.3c3.28-5.57,2.19-12.41,0-13.05-2.19-.64-7.33,3.03-8.73,5.08-1.4,2.04,1.25,6.6-2.58,8.52-3.83,1.92-5.2,1.92-5.57,4.56-.36,2.65,2.1,2.9,6.27,.02,4.17-2.87,3.49-7.01,3.83-10.32,.34-3.3,4.52-5.97,5.68-5.97s3.2,5.6-.48,10.81c-3.68,5.21-11.56,8.64-11.56,8.64Z"/><g><path class="g" d="M840.83,122.25s-4.19-5.4-8.64-6.32c-3.79-.02-4.08,6.32-4.08,6.32,0,0,7.36,.84,12.72,0Z"/><path class="an" d="M828.84,118.6c0,2.07,1.08,3.74,2.42,3.74s2.42-1.68,2.42-3.74-1.05-3.42-2.38-3.42c-.94,0-2.45,1.36-2.45,3.42Z"/><path class="ao" d="M829.18,118.29c0,1.19,.62,2.15,1.39,2.15s1.39-.96,1.39-2.15-.62-2.15-1.39-2.15-1.39,.96-1.39,2.15Z"/><path class="al" d="M828.11,122.25c.17-1.79,.63-3.57,1.64-4.95,.5-.67,1.17-1.24,1.9-1.56,.67-.27,1.56-.2,2.4,0,.85,.19,1.7,.48,2.53,.83,.84,.33,1.65,.73,2.47,1.12,1.63,.82,3.25,1.68,4.84,2.6-1.32-1.29-2.84-2.36-4.42-3.33-1.59-.95-3.28-1.81-5.18-2.26-.48-.1-.97-.17-1.49-.17-.51,0-1.06,.07-1.57,.31-.94,.48-1.67,1.18-2.17,2.02-.51,.83-.8,1.74-.94,2.66-.13,.92-.15,1.84,0,2.74Z"/><path class="ao" d="M841.52,123.08c-.92-1.44-2.05-2.75-3.3-3.95-1.26-1.21-2.63-2.29-4.27-3.14-.43-.2-.89-.37-1.4-.45-.5-.08-1.07-.06-1.58,.14-.51,.19-.92,.52-1.24,.86-.33,.35-.57,.74-.78,1.13-.84,1.57-1.08,3.34-.85,5,.23-1.65,.71-3.26,1.6-4.6,.45-.66,.98-1.27,1.64-1.47,.63-.23,1.4-.03,2.11,.32,.72,.36,1.46,.81,2.14,1.29,.7,.47,1.37,.99,2.04,1.52,1.33,1.06,2.61,2.2,3.88,3.36Z"/><ellipse class="g" cx="830.19" cy="117.53" rx=".49" ry=".7"/></g></g><path class="k" d="M899.81,122.63l15.74,15.54c0,.12-.02,.25-.03,.37-.7,7.79,3.2,17.22,7.53,18.37-3.86,2.76-8.48,5.83-11.06,6.65-4.97,1.59-10.18-9.45-9.38-18.33,.8-8.89-2.8-22.61-2.8-22.61Z"/><g><path class="ai" d="M927.19,158.66s-59.27-61.63-109.28-81.11c19.63-19.88,62.85-34.58,99.28-11.22,36.42,23.36,28.02,71.65,10.01,92.33Z"/><g><path class="p" d="M837.56,86.97c-6.61-3.69-13.21-6.9-19.65-9.42,19.63-19.88,62.85-34.58,99.28-11.22,1.26,.81,2.46,1.65,3.61,2.51-32.1-11.48-66.08,1.31-83.24,18.13Z"/><path class="i" d="M876.33,113.23s-66.41-37.21-72.22-39.88c-5.8-2.67,1.59-5.85,23.21-3.66,27.82,12.6,49.01,43.54,49.01,43.54Z"/><path class="h" d="M894.96,128.54c2.8-3.33,6.83-9.2,8.23-16.64,2.22-11.81-12.22-19.81-20.03-19.61-7.8,.2-17.61-10.01,0-15.41,17.61-5.4,47.42,1.37,49.73,28.2,1.76,20.37-9.18,37.66-14.55,44.8-5.67-5.48-13.77-13.05-23.38-21.34Z"/></g></g></g><path class="y" d="M909.38,209.3s-9.09,5.55-38.28,10.6c-29.19,5.05-34.91,26.87-39.35,43.71,36.58-22.42,91.3-28.32,91.3-28.32l-13.67-25.99Z"/></g></g><g><g><path class="ad" d="M738.87,435.7s2.79-2.69,3.58-7.18c.79-4.49,7.15-86.47,5.84-92.77s-3.83-10.98-3.83-10.98l28.87,2.72s-4.38,4.53-6.44,10.75c-2.07,6.22-10.54,85.91-10.93,91.06-.39,5.15,1.02,6.26,2.35,7.6,1.33,1.35-19.44-1.21-19.44-1.21Z"/><g><path class="q" d="M753.53,463.48l.79-10.33-6.68-5.87-8.03,4.86-.89,9.97s-2.69-1.11-4.61-4.61c-1.92-3.5-5.76-13.12,3.94-21.15,10.64-8.81,22.35-.39,24.65,7.15,2.34,7.65-2.23,15.24-4.96,17.66-2.5,2.22-4.21,2.32-4.21,2.32Z"/><path class="ad" d="M753.53,463.48l.79-10.33-6.68-5.87-8.03,4.86-.89,9.97s-2.69-1.11-4.61-4.61c-1.92-3.5-4.68-13.5,5.71-20.62,7.39-5.07,18.95-.26,21.25,7.28,2.34,7.64-.6,14.57-3.33,17-2.5,2.22-4.21,2.32-4.21,2.32Z"/></g><g><path class="q" d="M753.64,300.1l-.87,11.45,7.41,6.5,8.9-5.39,.99-11.05s2.98,1.23,5.11,5.11c2.12,3.88,6.39,14.54-4.36,23.44-11.8,9.76-24.77,.44-27.32-7.93-2.59-8.47,2.47-16.89,5.5-19.58,2.77-2.46,4.66-2.57,4.66-2.57Z"/><path class="ad" d="M753.64,300.1l-.87,11.45,7.41,6.5,8.9-5.39,.99-11.05s2.98,1.23,5.11,5.11c2.12,3.88,5.19,14.96-6.32,22.85-8.19,5.61-21,.29-23.56-8.07-2.59-8.47,.66-16.15,3.69-18.84,2.77-2.46,4.66-2.57,4.66-2.57Z"/></g><path class="q" d="M757.16,344.49h0c-1.82-.17-3.44,1.17-3.62,2.99l-6.87,72.92c-.17,1.82,1.18,3.44,2.99,3.62h0c1.82,.17,3.44-1.18,3.62-2.99l6.87-72.92c.17-1.82-1.18-3.44-2.99-3.61Z"/></g><g><g><path class="w" d="M869.02,416.49l-90.25-12.78-7.06,31.53s48.31,23.53,95.21,30.88c46.9,7.35,2.09-49.64,2.09-49.64Z"/><path class="aj" d="M778.78,403.71s-4.53-7.54-7.06-14.52c-2.53-6.98-10.65-7.4-10.65-7.4,0,0-.08,7.61-4.26,8.44-4.19,.84-7.87-.34-9.42-2.27-1.56-1.93-1.2-5.34-1.2-5.34-1.77-.09-10.83,3.01-9.38,10.13-6.42,4.96-2.79,12.2-2.79,12.2-4.3,3.44-4.13,10.04-1.37,12.94-4.19,4.25-1.18,9.44,2.3,12.52,4.6,4.08,10.51,3.91,20.77,4.84,10.26,.93,16.1,.14,20.65,2.17,3.86-7.1,2.41-33.7,2.41-33.7Z"/><path class="aa" d="M778.78,403.71s-4.53-7.54-7.06-14.52c-2.53-6.98-10.65-7.4-10.65-7.4,0,0,5.4,8.1,.15,11.6-3.55,2.37-11.33-.17-14.17-4.58-1.34-2.09-.88-6.18-.88-6.18-1.77-.09-10.83,3.01-9.38,10.13-6.42,4.96-2.79,12.2-2.79,12.2-4.3,3.44-4.13,10.04-1.37,12.94-4.19,4.25-1.18,9.44,2.3,12.52,4.6,4.08,10.51,3.91,20.77,4.84,10.26,.93,16.1,.14,20.65,2.17,3.86-7.1,2.41-33.7,2.41-33.7Z"/><path class="w" d="M747.57,389.51c3.16,3.97,10.29,6.12,13.65,3.88,5.25-3.5-.15-11.6-.15-11.6,0,0,8.12,.42,10.65,7.4,2.53,6.98,7.06,14.52,7.06,14.52,0,0,1.44,26.6-2.41,33.7-4.55-2.03-10.39-1.24-20.65-2.17-8.5-.77-14.01-.79-18.27-3.1-1.77-9.76-.7-32.41,10.13-42.64Z"/><path class="ab" d="M736.8,392.75c1.17,3.39,4.51,5.22,4.51,5.22,0,0-4.1-.62-5.63-4.23,.34-.34,.71-.67,1.12-.99Z"/><path class="ab" d="M732.98,405.93c.31-.35,.64-.68,1.02-.98l-.02-.04c1.86,2.77,5.13,3.84,5.13,3.84,0,0-3.91,.16-6.13-2.82Z"/><g><path class="ab" d="M732.61,417.92c1.86,1.97,4.26,2.74,4.26,2.74,0,0-2.87,.11-5.09-1.72,.24-.34,.51-.69,.84-1.02Z"/><polygon class="aj" points="730.78 410.63 730.78 410.63 730.78 410.63 730.78 410.63"/></g><path class="aj" d="M849.69,413.75l19.33,2.74s44.81,56.99-2.09,49.64c-10.16-1.59-20.38-3.94-30.17-6.65,12.29-10.41,17.15-29.54,12.93-45.72Z"/></g><path class="s" d="M953.4,339.5s-15.03-43.25-24.25-63.92c-9.22-20.67-28.91-19.9-48.18-12.63s-18.24,28.71-13.1,42.49c5.14,13.78,25.25,87.66,25.25,101.44s-31.41,7.97-31.41,7.97l-1.78,52.06s62.37,12.7,96.79,3.51c34.41-9.19,3.14-112.74-3.33-130.91Z"/><g><g><path class="f" d="M903.09,319.6h0c-1.08,.31-1.71,1.46-1.4,2.54l11.37,38.77c.31,1.08,4.25-.06,3.94-1.14l-11.37-38.77c-.31-1.08-1.46-1.71-2.54-1.4Z"/><g><g><path class="m" d="M886.15,289.13h22.61v12.53h-22.61c-1.36,0-2.46-1.1-2.46-2.46v-7.62c0-1.36,1.1-2.46,2.46-2.46Z" transform="translate(930.16 -647.65) rotate(73.82)"/><path class="m" d="M903.14,319.92h6.49v12.53h-6.49c-1.36,0-2.46-1.1-2.46-2.46v-7.62c0-1.36,1.1-2.46,2.46-2.46Z" transform="translate(844.13 1286.39) rotate(-106.18)"/><path class="ai" d="M893.7,309.17s5.76,6.81,4.2,14.46c0,0,5.69-.12,12.04-3.49-1.29-1.16-5.38-6.52-4.2-14.46-1.87-1.34-11.59,1.56-12.04,3.49Z"/></g><g><path class="ai" d="M892.86,284.33h0c-.78,.23-1.24,1.05-1.01,1.83l5.26,18.13c.23,.78,1.05,1.24,1.83,1.01h0c.78-.23,1.24-1.05,1.01-1.83l-5.26-18.13c-.23-.78-1.05-1.24-1.83-1.01Z"/><path class="ai" d="M888.41,286.57h0c-.5,.14-.78,.67-.64,1.16l5.41,18.66c.14,.5,.67,.78,1.16,.64h0c.5-.14,.78-.67,.64-1.16l-5.41-18.66c-.14-.5-.67-.78-1.16-.64Z"/><path class="ai" d="M897.9,283.81h0c-.5,.14-.78,.67-.64,1.16l5.41,18.66c.14,.5,.67,.78,1.16,.64h0c.5-.14,.78-.67,.64-1.16l-5.41-18.66c-.14-.5-.67-.78-1.16-.64Z"/></g><g><path class="ai" d="M903.95,322.56h0c-.78,.23-1.24,1.05-1.01,1.83l1.49,5.13c.23,.78,1.05,1.24,1.83,1.01h0c.78-.23,1.24-1.05,1.01-1.83l-1.49-5.13c-.23-.78-1.05-1.24-1.83-1.01Z"/><path class="ai" d="M899.23,323.56h0c-.5,.14-.78,.67-.64,1.16l1.74,5.99c.14,.5,.67,.78,1.16,.64h0c.5-.14,.78-.67,.64-1.16l-1.74-5.99c-.14-.5-.67-.78-1.16-.64Z"/><path class="ai" d="M908.72,320.81h0c-.5,.14-.78,.67-.64,1.16l1.74,5.99c.14,.5,.67,.78,1.16,.64h0c.5-.14,.78-.67,.64-1.16l-1.74-5.99c-.14-.5-.67-.78-1.16-.64Z"/></g></g></g><path class="am" d="M913.06,360.91l3.94-1.14s1.71,2.4,2.71,4.67c1,2.26,1.16,6.74,1.16,6.74l-5.02,1.04s-1.89-2.49-2.51-4.9c-.58-2.26-.27-6.4-.27-6.4Z"/></g><path class="j" d="M920.56,323.75s-22.12,8.98-30.23,8.14c8.23,23.16,16.9,52.36,16.9,52.36l16.67,8.5,9.5-16.36-12.83-52.64Z"/><path class="v" d="M930.77,279.3s5.87,19.6,0,46.76c-4.23,19.54-.55,47.2,12.45,52.6,13,5.4-1.33-17.93-3-31.27-1.67-13.33-.86-54.17-9.45-68.09Z"/><path class="u" d="M890.99,412.06s18.23,7.66,28.23,28.2c10,20.54,13.93,10.35,13.47,3.07-.47-7.28-14.42-25.02-41.7-31.28Z"/><path class="u" d="M897.72,409.6s29.24,5.8,41.12,22.63c11.88,16.83,19.38,10.49,15.21,4.16-4.17-6.33-29.3-26.91-56.33-26.79Z"/><path class="j" d="M851.75,414.04s2.61-7.82,8.2-6.42c5.58,1.4,4.47,3.91,13.68,1.4,9.22-2.51,15.64,.56,20.94,19.55,5.31,18.99,4.75,41.89,0,48.31-4.75,6.42-15.36-2.51-20.39-1.4-5.03,1.12-20.84,7.65-21.73-12.23,6.09-9.83-.71-49.21-.71-49.21Z"/><path class="r" d="M868.05,425.22c-.93-9.23-2.97-13.98-4.88-16.43,2.24,1.07,3.37,1.93,8.76,.66,10.11,9.89,14.01,42.69,6.96,44.94-7.33,2.33-8.83-9.33-10.83-29.17Z"/></g></g></g></g></g></g><g id="e"/></svg>