<svg xmlns="http://www.w3.org/2000/svg" viewBox="-0.5 -0.5 16 16" id="Gears--Streamline-Font-Awesome.svg" height="16" width="16"><desc>Gears Streamline Icon: https://streamlinehq.com</desc><!--! Font Awesome Free 6.5.2 by @fontawesome - https://fontawesome.com License - https://fontawesome.com/license/free (Icons: CC BY 4.0, Fonts: SIL OFL 1.1, Code: MIT License) Copyright 2024 Fonticons, Inc.--><path d="M7.281656250000001 4.6254984375c0.16610625 -0.1473890625 0.2316140625 -0.37900078125000003 0.14505234375 -0.5848781249999999 -0.053810156250000005 -0.12399609375 -0.11229843750000001 -0.24565078125 -0.17780390624999998 -0.36262734375l-0.07252499999999999 -0.1263328125c-0.0701859375 -0.11697656249999999 -0.14739140625000002 -0.23161171874999997 -0.22927265624999998 -0.34156875000000003 -0.13335234375 -0.17780390624999998 -0.36730546875 -0.23629218749999997 -0.5778609375 -0.16610625l-0.65974453125 0.21757500000000002c-0.25032890625 -0.20587734375 -0.53808984375 -0.37432265625 -0.84690703125 -0.48896015625l-0.14271093750000002 -0.6784593750000001c-0.044449218750000005 -0.21757500000000002 -0.21289453125000002 -0.39070078124999996 -0.4328109375 -0.41643515625000005 -0.15440625 -0.02105625 -0.31115625 -0.030412500000000002 -0.47024296875000005 -0.030412500000000002h-0.01637578125c-0.15908671875 0 -0.315834375 0.00935625 -0.47024296875000005 0.0280734375 -0.21991640625000003 0.025734375000000004 -0.38836171875000003 0.20119921875000002 -0.4328109375 0.4164328125l-0.14271093750000002 0.68080078125c-0.31115625 0.11697656249999999 -0.596578125 0.2830828125 -0.8469046874999999 0.48896015625l-0.6620859375 -0.21523593750000003c-0.21055546875000003 -0.0701859375 -0.44450859374999996 -0.01169765625 -0.5778609375 0.16610625 -0.08188124999999999 0.10995703124999999 -0.15908671875 0.22459218749999998 -0.23161171874999997 0.34156875000000003l-0.0701859375 0.12399375c-0.06550546875 0.11697656249999999 -0.12399375 0.23863125 -0.17780390624999998 0.36496640625 -0.08656171874999999 0.20353828125 -0.02105390625 0.43515000000000004 0.14505234375 0.5848781249999999l0.5193726562500001 0.46322578124999997c-0.025734375000000004 0.15674765625 -0.0397734375 0.32051484375 -0.0397734375 0.48661875s0.0140390625 0.3298734375 0.0397734375 0.48896015625l-0.5193726562500001 0.46322578124999997c-0.16610625 0.1473890625 -0.2316140625 0.37900078125000003 -0.14505234375 0.5848781249999999 0.053810156250000005 0.12399609375 0.11229843750000001 0.24565078125 0.17780390624999998 0.36496640625l0.0701859375 0.1216546875c0.0701859375 0.119315625 0.1473890625 0.23161171874999997 0.23161171874999997 0.34156875000000003 0.13335234375 0.17780390624999998 0.36730546875 0.23629218749999997 0.5778609375 0.16610625l0.65974453125 -0.21757500000000002c0.25032890625 0.20587734375 0.53808984375 0.37432265625 0.84690703125 0.48896015625l0.14271093750000002 0.6807984375c0.044449218750000005 0.21757500000000002 0.21289453125000002 0.39070078124999996 0.4328109375 0.41643515625000005 0.15674765625 0.01871484375 0.315834375 0.0280734375 0.47726015624999996 0.0280734375s0.32051484375 -0.00935859375 0.4772625 -0.0280734375c0.21991406249999998 -0.025734375000000004 0.388359375 -0.20119921875000002 0.4328109375 -0.41643515625000005l0.14271093750000002 -0.6807984375c0.31115625 -0.11697656249999999 0.596578125 -0.2830828125 0.8469046874999999 -0.48896015625l0.65974453125 0.21757500000000002c0.2105578125 0.0701859375 0.44450859374999996 0.01169765625 0.5778609375 -0.16610625 0.08188359375 -0.10995703124999999 0.1590890625 -0.222253125 0.22927265624999998 -0.34156875000000003l0.07252499999999999 -0.12633515625c0.0655078125 -0.11697421875 0.12399609375 -0.23863125 0.17780390624999998 -0.362625 0.08656171874999999 -0.20353828125 0.02105625 -0.43515000000000004 -0.14504999999999998 -0.58488046875l-0.5193726562500001 -0.46322343749999995c0.025734375000000004 -0.15908671875 0.03977109375 -0.32285390625 0.03977109375 -0.48896015625s-0.01403671875 -0.32987109375 -0.03977109375 -0.48895781250000003l0.5193726562500001 -0.46322578124999997Zm-4.597153125 0.9521835937500001c0 -0.8644617187499999 0.9358078125 -1.40475 1.684453125 -0.9725179687500001 0.34744921875 0.20059921874999997 0.5614851562500001 0.571321875 0.5614851562500001 0.9725179687500001 0 0.8644640625 -0.9358078125 1.40475234375 -1.684453125 0.9725203124999999 -0.34744921875 -0.20059921874999997 -0.5614851562500001 -0.571321875 -0.5614851562500001 -0.9725203124999999Zm9.1872890625 7.5917390625c0.14739140625000002 0.16610625 0.379003125 0.23161171874999997 0.58488046875 0.14504999999999998 0.12399375 -0.053810156250000005 0.24564843749999998 -0.11229609374999999 0.362625 -0.17780390624999998l0.12633515625 -0.07252499999999999c0.11697421875 -0.0701859375 0.23161171874999997 -0.1473890625 0.34156875000000003 -0.22927265624999998 0.17780390624999998 -0.13335234375 0.23629218749999997 -0.36730546875 0.16610625 -0.5778609375l-0.21757500000000002 -0.65974453125c0.20587734375 -0.25032890625 0.37432265625 -0.53808984375 0.48895781250000003 -0.8469046874999999l0.68080078125 -0.14271093750000002c0.21757500000000002 -0.0444515625 0.3906984375 -0.212896875 0.41643515625000005 -0.4328109375 0.01871484375 -0.15674765625 0.0280734375 -0.315834375 0.0280734375 -0.4772625s-0.00935859375 -0.32051484375 -0.0280734375 -0.4772625c-0.025736718750000002 -0.21991406249999998 -0.20119921875000002 -0.388359375 -0.41643515625000005 -0.4328109375l-0.68080078125 -0.14504999999999998c-0.11697421875 -0.31115625 -0.28308046875 -0.59657578125 -0.48895781250000003 -0.8469046874999999l0.21757500000000002 -0.65974453125c0.0701859375 -0.21055546875000003 0.01169765625 -0.44450859374999996 -0.16610625 -0.5778609375 -0.10995703124999999 -0.08188359375 -0.22459453125 -0.15908671875 -0.34156875000000003 -0.23161171874999997l-0.12399609375 -0.0701859375c-0.11697421875 -0.0655078125 -0.23863125 -0.12399375 -0.3649640625 -0.17780390624999998 -0.20353828125 -0.08656171874999999 -0.43515000000000004 -0.02105625 -0.58488046875 0.14504999999999998l-0.46322343749999995 0.5193726562500001c-0.15908671875 -0.025734375000000004 -0.32285390625 -0.03977109375 -0.48896015625 -0.03977109375s-0.32987109375 0.01403671875 -0.48896015625 0.03977109375l-0.46322343749999995 -0.5193726562500001c-0.1473890625 -0.16610625 -0.379003125 -0.23161171874999997 -0.58488046875 -0.14504999999999998 -0.12399375 0.053810156250000005 -0.24564843749999998 0.11229609374999999 -0.3649640625 0.17780390624999998l-0.1216546875 0.0701859375c-0.119315625 0.07018359375 -0.2316140625 0.1473890625 -0.34157109375 0.23161171874999997 -0.1778015625 0.13335234375 -0.23628984375 0.36730546875 -0.16610390625000002 0.5778609375l0.21757500000000002 0.65974453125c-0.20587734375 0.25032890625 -0.37432265625 0.53808984375 -0.48896015625 0.8469046874999999l-0.68080078125 0.140371875c-0.21757500000000002 0.0444515625 -0.3906984375 0.212896875 -0.4164328125 0.4328109375 -0.0187171875 0.15674765625 -0.02807578125 0.315834375 -0.02807578125 0.4772625s0.00935859375 0.3205125 0.02807578125 0.47726015624999996c0.025734375000000004 0.21991640625000003 0.201196875 0.38836171875000003 0.4164328125 0.4328109375l0.68080078125 0.14271093750000002c0.11697656249999999 0.31115625 0.28308046875 0.596578125 0.48896015625 0.84690703125l-0.21757500000000002 0.65974453125c-0.0701859375 0.21055546875000003 -0.01169765625 0.44450859374999996 0.16610390625000002 0.5778609375 0.10995703124999999 0.08188359375 0.22225546875000002 0.15908671875 0.34157109375 0.22927265624999998l0.1263328125 0.07252499999999999c0.11697656249999999 0.06550546875 0.23863125 0.12399375 0.362625 0.17780390624999998 0.20353828125 0.08656171874999999 0.43515234375 0.02105390625 0.58488046875 -0.14504999999999998l0.46322578124999997 -0.519375c0.15908671875 0.025734375000000004 0.3228515625 0.0397734375 0.48895781250000003 0.0397734375s0.3298734375 -0.0140390625 0.48896015625 -0.0397734375l0.46322343749999995 0.519375Zm-0.9521835937500001 -4.597153125c0.8644617187499999 0 1.40475 0.93580546875 0.9725203124999999 1.684453125 -0.20059921874999997 0.34744687500000004 -0.571321875 0.5614828125 -0.9725203124999999 0.5614828125 -0.8644617187499999 0 -1.40475 -0.93580546875 -0.9725203124999999 -1.684453125 0.20059921874999997 -0.34744687500000004 0.571321875 -0.5614828125 0.9725203124999999 -0.5614828125Z" fill="#ffffff" stroke-width="1"></path></svg>